<svg width="40" height="40" viewBox="0 0 40 40" fill="none" xmlns="http://www.w3.org/2000/svg">
<rect width="40" height="40" rx="4" fill="#FEEEC5"/>
<path d="M28 30H12C11.7348 30 11.4804 29.8946 11.2929 29.7071C11.1054 29.5196 11 29.2652 11 29V11C11 10.7348 11.1054 10.4804 11.2929 10.2929C11.4804 10.1054 11.7348 10 12 10H28C28.2652 10 28.5196 10.1054 28.7071 10.2929C28.8946 10.4804 29 10.7348 29 11V29C29 29.2652 28.8946 29.5196 28.7071 29.7071C28.5196 29.8946 28.2652 30 28 30ZM27 28V12H13V28H27ZM22 20V25H18V22H20V20H22ZM20 12H22V14H20V12ZM18 14H20V16H18V14ZM20 16H22V18H20V16ZM18 18H20V20H18V18Z" fill="#CD8D03"/>
</svg>
