<svg width="40" height="40" viewBox="0 0 40 40" fill="none" xmlns="http://www.w3.org/2000/svg">
<rect width="40" height="40" rx="4" fill="#FEE1DC"/>
<path d="M22 10L28 16V28C28 28.5304 27.7893 29.0391 27.4142 29.4142C27.0391 29.7893 26.5304 30 26 30H14C13.4696 30 12.9609 29.7893 12.5858 29.4142C12.2107 29.0391 12 28.5304 12 28V12C12 11.4696 12.2107 10.9609 12.5858 10.5858C12.9609 10.2107 13.4696 10 14 10H22ZM26 28V17H21V12H14V28H26ZM18.92 20.31C18.68 19.54 18.15 17.08 19.55 17.04C20.95 17 20.03 20.16 20.03 20.16C20.42 21.65 22.05 22.72 22.05 22.72C22.55 22.57 25.4 22.24 25 23.72C24.57 25.2 21.5 23.81 21.5 23.81C19.55 23.95 18.09 24.47 18.09 24.47C16.96 26.58 15.64 27.5 15.1 26.61C14.43 25.5 17.23 24.07 17.23 24.07C18.68 21.72 18.9 20.35 18.92 20.31ZM19.57 21.15C19.17 22.45 18.37 23.84 18.37 23.84C19.22 23.5 21.08 23.11 21.08 23.11C19.94 22.11 19.59 21.16 19.57 21.15ZM22.71 23.32C22.71 23.32 24.46 23.97 24.5 23.71C24.57 23.44 23.17 23.2 22.71 23.32ZM17.05 24.81C16.28 25.11 15.54 26.39 15.72 26.39C15.9 26.4 16.63 25.79 17.05 24.81ZM19.57 19.26C19.57 19.21 20 17.58 19.57 17.53C19.27 17.5 19.56 19.22 19.57 19.26Z" fill="#C42008"/>
</svg>
