<svg width="16" height="20" viewBox="0 0 16 20" fill="none" xmlns="http://www.w3.org/2000/svg">
<path d="M10 0L16 6V18C16 18.5304 15.7893 19.0391 15.4142 19.4142C15.0391 19.7893 14.5304 20 14 20H2C1.46957 20 0.960859 19.7893 0.585786 19.4142C0.210714 19.0391 0 18.5304 0 18V2C0 1.46957 0.210714 0.960859 0.585786 0.585786C0.960859 0.210714 1.46957 0 2 0H10ZM14 18V7H9V2H2V18H14ZM6.92 10.31C6.68 9.54 6.15 7.08 7.55 7.04C8.95 7 8.03 10.16 8.03 10.16C8.42 11.65 10.05 12.72 10.05 12.72C10.55 12.57 13.4 12.24 13 13.72C12.57 15.2 9.5 13.81 9.5 13.81C7.55 13.95 6.09 14.47 6.09 14.47C4.96 16.58 3.64 17.5 3.1 16.61C2.43 15.5 5.23 14.07 5.23 14.07C6.68 11.72 6.9 10.35 6.92 10.31ZM7.57 11.15C7.17 12.45 6.37 13.84 6.37 13.84C7.22 13.5 9.08 13.11 9.08 13.11C7.94 12.11 7.59 11.16 7.57 11.15ZM10.71 13.32C10.71 13.32 12.46 13.97 12.5 13.71C12.57 13.44 11.17 13.2 10.71 13.32ZM5.05 14.81C4.28 15.11 3.54 16.39 3.72 16.39C3.9 16.4 4.63 15.79 5.05 14.81ZM7.57 9.26C7.57 9.21 8 7.58 7.57 7.53C7.27 7.5 7.56 9.22 7.57 9.26Z" fill="#C42008"/>
</svg>
